<svg xmlns="http://www.w3.org/2000/svg" width="32" height="32" viewBox="0 0 32 32" fill="none">
  <path d="M13.8 4.5h4.4l.7 3.2c.7.2 1.3.5 1.9.8l2.8-1.7 3.1 3.1-1.7 2.8c.3.6.6 1.2.8 1.9l3.2.7v4.4l-3.2.7c-.2.7-.5 1.3-.8 1.9l1.7 2.8-3.1 3.1-2.8-1.7c-.6.3-1.2.6-1.9.8l-.7 3.2h-4.4l-.7-3.2c-.7-.2-1.3-.5-1.9-.8l-2.8 1.7-3.1-3.1 1.7-2.8c-.3-.6-.6-1.2-.8-1.9l-3.2-.7v-4.4l3.2-.7c.2-.7.5-1.3.8-1.9L5.3 9.9l3.1-3.1 2.8 1.7c.6-.3 1.2-.6 1.9-.8l.7-3.2Z" stroke="#000000" stroke-width="2.2" stroke-linecap="round" stroke-linejoin="round"/>
  <path d="M16 12a4 4 0 1 1 0 8 4 4 0 0 1 0-8Z" stroke="#000000" stroke-width="2.2"/>
</svg>
